<svg xmlns="http://www.w3.org/2000/svg" xmlns:xlink="http://www.w3.org/1999/xlink" width="188" height="46" viewBox="0 0 188 46">
    <defs>
        <path id="a" d="M0 .148h3.496V45.21H0z"/>
    </defs>
    <g fill="none" fill-rule="evenodd">
        <g transform="translate(0 .538)">
            <mask id="b" fill="#fff">
                <use xlink:href="#a"/>
            </mask>
            <path fill="#00355F" d="M3.496 1.068L.24.155A.188.188 0 0 0 0 .334v44.69c0 .125.12.214.24.18l3.256-.914V1.068z" mask="url(#b)"/>
        </g>
        <path fill="#00355F" d="M17.972 27.55v17.952c0 .154.148.265.298.223l9.05-2.764-9.348-15.411zM19.394 12.555c1.913-3.285 4.092-5.824 6.044-5.848h8.692v-.983a.232.232 0 0 0-.171-.224L18.269.71a.235.235 0 0 0-.298.224v14.064l1.423-2.442zM45.846 31.525l-1.4 2.402a.169.169 0 0 1-.289.002l-2.946-4.855a.167.167 0 0 1 0-.17l1.491-2.56c1.497-2.57 2.61-3.103 3.704-1.3 1.094 1.801.937 3.912-.56 6.481m-6.278-9.46l-1.134 1.948a.17.17 0 0 1-.29.003l-2.632-4.338 1.277-2.193c1.233-2.117 2.17-2.497 3.08-.997.912 1.504.931 3.461-.301 5.577m10.81-2.922c-1.958-3.229-4.151-3.142-5.926-1.475l-.092-.151c.645-2.64-.109-6.253-1.384-8.355-2.915-4.806-6.111-1.926-9.106 3.216l-4.977 8.545a.583.583 0 0 0 .005.597l1.718 2.833 1.947 3.21L43.376 45.39a.17.17 0 0 0 .29-.003l5.45-9.357c3.082-5.292 4.316-11.853 1.263-16.886M176.052 20.36h-3.107c-.984.002-1.28.214-1.581 1.136l-5.205 15.935-.033.093-6.217-16.548c-.332-.884-.625-1.088-1.564-1.098-.75-.008-1.496-.007-2.246 0-.942.01-1.215.197-1.53 1.06l-5.974 16.333-5.616-15.755c-.147-.415-.396-1.112-1.177-1.13a102.36 102.36 0 0 0-4.286-.006c-.354.007-.544.149-.642.266-.103.126-.212.359-.14.754.028.15.083.288.137.422l6.493 16.818c.713 1.847 1.426 3.695 2.141 5.541.345.891.648 1.097 1.62 1.098h1.936c1.058 0 1.292-.162 1.673-1.15l6.316-16.351.05-.124 6.52 16.607c.325.825.607 1.015 1.506 1.017h1.835c1.002 0 1.334-.227 1.695-1.154l8.553-22.128c.215-.555.315-.986.112-1.28-.205-.295-.655-.356-1.269-.356M125.879 36.664c-1.117 2.131-2.923 3.397-5.363 3.761-2.45.365-4.568-.252-6.291-1.837-1.647-1.514-2.424-3.45-2.446-6.083.137-3.106 1.624-5.415 4.303-6.675a7.668 7.668 0 0 1 3.259-.714c1.233 0 2.467.286 3.553.857 2.036 1.069 3.369 3.01 3.75 5.466.305 1.952.054 3.66-.765 5.225m5.2-16.301c-.954-.01-1.906-.008-2.857 0-.763.005-1.125.316-1.209 1.04a34.275 34.275 0 0 0-.136 1.619l-.023.327c-2.143-2.145-4.708-3.266-7.829-3.42-4.574-.222-8.174 1.517-10.71 5.182-2.037 2.941-2.729 6.427-2.058 10.36.98 5.741 5.364 9.856 10.909 10.237.35.024.696.035 1.038.035 3.603 0 6.567-1.356 8.821-4.04l.12 2.447c.038.754.425 1.123 1.183 1.127.951.005 1.904.01 2.856-.002.632-.007.984-.315 1.073-.941.027-.194.027-.388.027-.576V21.939l.001-.111c.001-.12.001-.24-.008-.358-.059-.758-.428-1.1-1.199-1.107M72.347 25.686c2.83-.958 5.576-.75 8.16.62.842.448 1.268.328 1.748-.493.391-.67.781-1.338 1.168-2.01.504-.878.373-1.379-.503-1.915-2.13-1.301-4.566-1.95-7.666-2.043h-.011l-.011.001-.711.057c-.5.038-1.018.077-1.525.142-7.296.945-12.234 7.024-11.488 14.142.49 4.666 2.874 8.083 7.085 10.157 1.922.948 4.036 1.413 6.429 1.413.435 0 .88-.015 1.334-.045 2.509-.171 4.66-.818 6.581-1.977.74-.447.874-.934.461-1.68a152.06 152.06 0 0 0-1.322-2.33c-.379-.659-.75-.766-1.42-.41-1.789.948-3.765 1.33-6.043 1.166-3.895-.28-6.81-2.936-7.249-6.608-.446-3.735 1.556-7.026 4.983-8.187M187.762 9.467c.002-.54.004-1.081-.01-1.622-.014-.645-.372-1.006-1.004-1.016-1.166-.017-2.4-.018-3.672-.001-.613.008-.974.347-1.044.982-.019.185-.019.373-.019.56v35.302l-.002.111c0 .118-.001.237.006.354.047.795.41 1.136 1.217 1.14l1.26.003h.874l.872-.001c1.265 0 1.521-.25 1.521-1.486V10.02l.001-.554zM103.47 19.956l-.525-.002c-.84-.005-1.706-.012-2.542.124-2.718.44-4.765 1.801-6.09 4.05a9.051 9.051 0 0 0-.318.606l.001-.7c.001-.831.003-1.661-.004-2.492-.007-.724-.387-1.15-1.044-1.17a50.925 50.925 0 0 0-2.964.003c-.564.017-.933.365-.988.93a6.44 6.44 0 0 0-.028.622c-.002 7.27-.002 14.54-.002 21.81v.096c-.001.089-.002.178.004.268.044.821.415 1.173 1.239 1.177l1.315.002 1.157-.001h.687c1.05-.001 1.354-.304 1.354-1.35v-3.6c0-2.468-.001-4.936.005-7.404 0-.625.032-1.246.09-1.845.308-3.11 3.008-5.613 6.15-5.698.57-.017 1.159.034 1.728.082l.274.023c.474.04 1.12.004 1.203-.754.143-1.296.252-2.498.334-3.673.025-.344-.056-.617-.24-.812-.18-.193-.45-.292-.795-.292"/>
    </g>
</svg>
