<svg xmlns="http://www.w3.org/2000/svg" width="20" height="20" viewBox="0 0 20 20">
    <path fill="#5B5E6D" fill-rule="evenodd" d="M4.48 6.307v12.72H.243V6.307h4.235zm.269-3.927c.013 1.22-.911 2.195-2.387 2.195h-.026C.91 4.575 0 3.599 0 2.38 0 1.135.95.185 2.387.185c1.45 0 2.35.95 2.362 2.195zm6.289 5.735c.557-.87 1.562-2.103 3.812-2.103 2.785 0 4.864 1.823 4.864 5.725v7.29h-4.222v-6.803c0-1.707-.616-2.875-2.144-2.875-1.168 0-1.86.783-2.169 1.54-.103.283-.141.655-.141 1.04v7.098H6.815c.052-11.526 0-12.72 0-12.72h4.223v1.808z"/>
</svg>
