<svg xmlns="http://www.w3.org/2000/svg" width="21" height="17" viewBox="0 0 21 17">
    <path fill="#5B5E6D" fill-rule="evenodd" d="M20.792 2.522a8.912 8.912 0 0 1-2.079 2.144c.013.18.013.36.013.539C18.726 10.685 14.555 17 6.931 17c-2.349 0-4.53-.68-6.366-1.861.333.038.654.051 1 .051a8.302 8.302 0 0 0 5.148-1.77 4.153 4.153 0 0 1-3.877-2.876c.257.039.514.064.783.064.373 0 .745-.051 1.091-.14a4.146 4.146 0 0 1-3.324-4.07v-.05c.552.307 1.194.5 1.874.525a4.143 4.143 0 0 1-1.848-3.452c0-.77.205-1.476.565-2.092a11.784 11.784 0 0 0 8.548 4.338 4.68 4.68 0 0 1-.103-.95A4.144 4.144 0 0 1 14.568.571c1.193 0 2.271.501 3.029 1.31a8.161 8.161 0 0 0 2.63-1.002 4.134 4.134 0 0 1-1.822 2.285 8.312 8.312 0 0 0 2.387-.642z"/>
</svg>
